<?xml version="1.0" encoding="UTF-8"?>
<svg xmlns="http://www.w3.org/2000/svg" width="100%" height="100%" viewBox="0 0 915 585">
    <path stroke="#f00" fill="#f88"
          d=""/>
    <rect
       style="fill:#00222b;stroke:none;stroke-opacity:1"
       id="background-night"
       width="1000"
       height="600"
       x="0"
       y="0" />

    <g id="car" class="car">
    <path
        style="opacity:1;fill:#ff0000;fill-rule:evenodd;stroke:#860000;stroke-width:1px;stroke-linecap:butt;stroke-linejoin:miter;stroke-opacity:0.72"
        d="M 55,0

        c -35,0 -35,30 -35,40
        l -10,0
        c -10,0 -10,10 -10,10
        l 0,30
        l 15,0 a 25,25 0 0 1 25,-25 25,25 0 0 1 25,25 l 50,0 a 25,25 0 0 1 25,-25 25,25 0 0 1 25,25 l 15,0
        l 0,-30
        c 0,-10 -10,-10 -10,-10
        l -30,0
        c 0,-40 -40,-40 -40,-40
        l -45,0 z

        m -5,10 20,0 0,30 -40,0 c 0,-15 5,-30 20,-30 z

        m 30,0 20,0 c 20,0 30,10 30,30 l -50,0 0,-30 z"

        id="chassis"
        />

    <circle
        style="fill:#000000;fill-rule:evenodd;stroke:#141414;stroke-width:1px;stroke-linecap:butt;stroke-linejoin:miter;stroke-opacity:1"
        id="tire1"
        cx="40" cy="80" r="20"
        />

    <circle
        style="fill:#222;fill-rule:evenodd;stroke:#141414;stroke-width:1px;stroke-linecap:butt;stroke-linejoin:miter;stroke-opacity:1"
        id="wheel1"
        cx="40" cy="80" r="10"
        />

    <circle
        style="fill:#000000;fill-rule:evenodd;stroke:#141414;stroke-width:1px;stroke-linecap:butt;stroke-linejoin:miter;stroke-opacity:1"
        id="tire2"
        cx="140" cy="80" r="20"
        />

    <circle
        style="fill:#222;fill-rule:evenodd;stroke:#141414;stroke-width:1px;stroke-linecap:butt;stroke-linejoin:miter;stroke-opacity:1"
        id="wheel2"
        cx="140" cy="80" r="10"
        />

    <path
        style="fill:#fff;stroke:none;stroke-opacity:1"
        d="m 165,41 0,20 15,0 l 0,-10 c 0,-10 -10,-10 -10,-10 z"
        id="car-light" class="car-light"
        />
    </g>
</svg>
